HIERARCHY
ROOT Hips
{
	OFFSET 0.00000 0.00000 0.00000
	CHANNELS 6 Xposition Yposition Zposition Zrotation Yrotation Xrotation 
	JOINT LHipJoint
	{
		OFFSET 0 0 0
		CHANNELS 3 Zrotation Yrotation Xrotation
		JOINT LeftUpLeg
		{
			OFFSET 1.28858 -1.83292 1.03970
			CHANNELS 3 Zrotation Yrotation Xrotation
			JOINT LeftLeg
			{
				OFFSET 2.47846 -6.80952 0.00000
				CHANNELS 3 Zrotation Yrotation Xrotation
				JOINT LeftFoot
				{
					OFFSET 2.75274 -7.56311 0.00000
					CHANNELS 3 Zrotation Yrotation Xrotation
					JOINT LeftToeBase
					{
						OFFSET 0.12848 -0.35301 1.68223
						CHANNELS 3 Zrotation Yrotation Xrotation
						End Site
						{
							OFFSET 0.00000 -0.00000 0.87311
						}
					}
				}
			}
		}
	}
	JOINT RHipJoint
	{
		OFFSET 0 0 0
		CHANNELS 3 Zrotation Yrotation Xrotation
		JOINT RightUpLeg
		{
			OFFSET -1.31183 -1.83292 1.03970
			CHANNELS 3 Zrotation Yrotation Xrotation
			JOINT RightLeg
			{
				OFFSET -2.44740 -6.72417 0.00000
				CHANNELS 3 Zrotation Yrotation Xrotation
				JOINT RightFoot
				{
					OFFSET -2.67343 -7.34519 0.00000
					CHANNELS 3 Zrotation Yrotation Xrotation
					JOINT RightToeBase
					{
						OFFSET -0.16914 -0.46471 1.77626
						CHANNELS 3 Zrotation Yrotation Xrotation
						End Site
						{
							OFFSET -0.00000 -0.00000 0.92777
						}
					}
				}
			}
		}
	}
	JOINT LowerBack
	{
		OFFSET 0 0 0
		CHANNELS 3 Zrotation Yrotation Xrotation
		JOINT Spine
		{
			OFFSET 0.01249 2.14252 0.03842
			CHANNELS 3 Zrotation Yrotation Xrotation
			JOINT Spine1
			{
				OFFSET -0.02957 2.14199 -0.03751
				CHANNELS 3 Zrotation Yrotation Xrotation
				JOINT Neck
				{
					OFFSET 0 0 0
					CHANNELS 3 Zrotation Yrotation Xrotation
					JOINT Neck1
					{
						OFFSET -0.01678 1.65709 -0.05476
						CHANNELS 3 Zrotation Yrotation Xrotation
						JOINT Head
						{
							OFFSET 0.07912 1.58331 -0.11843
							CHANNELS 3 Zrotation Yrotation Xrotation
							End Site
							{
								OFFSET 0.03298 1.73940 -0.04271
							}
						}
					}
				}
				JOINT LeftShoulder
				{
					OFFSET 0 0 0
					CHANNELS 3 Zrotation Yrotation Xrotation
					JOINT LeftArm
					{
						OFFSET 3.39556 1.16496 0.08673
						CHANNELS 3 Zrotation Yrotation Xrotation
						JOINT LeftForeArm
						{
							OFFSET 5.23910 -0.00000 -0.00000
							CHANNELS 3 Zrotation Yrotation Xrotation
							JOINT LeftHand
							{
								OFFSET 3.31467 -0.00000 0.00000
								CHANNELS 3 Zrotation Yrotation Xrotation
								JOINT LeftFingerBase
								{
									OFFSET 0 0 0
									CHANNELS 3 Zrotation Yrotation Xrotation
									JOINT LeftHandIndex1
									{
										OFFSET 0.96590 -0.00000 0.00000
										CHANNELS 3 Zrotation Yrotation Xrotation
										End Site
										{
											OFFSET 0.77873 -0.00000 0.00000
										}
									}
								}
								JOINT LThumb
								{
									OFFSET 0 0 0
									CHANNELS 3 Zrotation Yrotation Xrotation
									End Site
									{
										OFFSET 0.79062 -0.00000 0.79062
									}
								}
							}
						}
					}
				}
				JOINT RightShoulder
				{
					OFFSET 0 0 0
					CHANNELS 3 Zrotation Yrotation Xrotation
					JOINT RightArm
					{
						OFFSET -3.27193 1.31331 0.33940
						CHANNELS 3 Zrotation Yrotation Xrotation
						JOINT RightForeArm
						{
							OFFSET -5.30252 -0.00000 0.00000
							CHANNELS 3 Zrotation Yrotation Xrotation
							JOINT RightHand
							{
								OFFSET -3.67875 -0.00000 0.00000
								CHANNELS 3 Zrotation Yrotation Xrotation
								JOINT RightFingerBase
								{
									OFFSET 0 0 0
									CHANNELS 3 Zrotation Yrotation Xrotation
									JOINT RightHandIndex1
									{
										OFFSET -0.59481 -0.00000 0.00000
										CHANNELS 3 Zrotation Yrotation Xrotation
										End Site
										{
											OFFSET -0.47955 -0.00000 0.00000
										}
									}
								}
								JOINT RThumb
								{
									OFFSET 0 0 0
									CHANNELS 3 Zrotation Yrotation Xrotation
									End Site
									{
										OFFSET -0.48687 -0.00000 0.48687
									}
								}
							}
						}
					}
				}
			}
		}
	}
}
MOTION
Frames: 10
Frame Time: 0.025974
0.00 0.00 0.00 -9.1295 -3.2703 -259.1700 0.0000 0.0000 0.0000 -19.7671 -7.2182 -87.7905 15.1317 19.4220 75.6331 -0.6879 -19.7391 -7.1022 3.7266 11.7875 34.9842 0.0000 0.0000 0.0000 -2.2413 20.6224 -90.0389 -16.1176 -19.6347 78.5818 178.7114 2.6891 -20.7422 -0.0010 0.2040 -0.5606 -13.2688 2.1709 68.0409 -4.2357 -6.1377 11.8468 3.0622 -2.0607 -7.1216 -15.6627 6.0713 3.3380 7.2419 6.5658 32.3588 5.5401 1.5543 8.8570 -0.0000 -0.0000 0.0000 -16.5922 -40.1108 -27.0694 150.7355 -40.2546 -109.0688 -0.0000 -0.0000 6.3871 74.5329 -29.5961 -60.7396 -7.1250 0.0000 -0.0000 23.7417 -30.9550 -34.3337 -0.0000 -0.0000 0.0000 32.3746 68.4445 -15.4787 -151.8897 39.2176 -109.8067 0.0000 -0.0000 -0.6532 -92.6052 42.7707 -93.8334 7.1250 -0.0000 -0.0000 -153.7026 57.1539 -171.7855
0.00 0.00 0.00 -7.7466 -4.0777 -264.6260 0.0000 0.0000 0.0000 -20.3794 -6.3856 -85.5822 16.2147 19.6529 78.8707 -0.6601 -18.4174 -5.7759 4.2157 12.4420 37.3141 0.0000 0.0000 0.0000 -1.7066 19.3410 -88.2032 -17.5203 -19.8519 82.7325 -179.6683 36.3729 -24.4183 -0.0025 -0.3256 0.8945 -13.2860 1.9919 72.0654 -4.2022 -6.8503 11.3713 3.1833 -2.2338 -7.4248 -14.5911 6.3957 2.6788 5.9973 7.2672 32.3611 4.9660 1.8619 9.0009 -0.0000 0.0000 0.0000 -15.4805 -39.2968 -27.9616 150.8597 -40.1450 -109.1490 -0.0000 -0.0000 5.3801 73.6769 -28.8017 -58.7059 -7.1250 0.0000 -0.0000 23.5075 -29.1220 -33.7755 -0.0000 0.0000 0.0000 33.1058 69.3935 -14.4858 -151.4415 39.6254 -109.5220 0.0000 -0.0000 -0.2400 -90.9802 43.1081 -91.4342 7.1250 -0.0000 -0.0000 -152.8110 58.7358 -170.4229
0.00 0.00 0.00 -7.0382 -4.3371 -267.1900 0.0000 0.0000 0.0000 -20.4033 -6.1414 -84.6613 17.1836 19.8087 81.7400 1.7319 -11.5398 -23.7626 4.4307 12.7125 38.3017 0.0000 0.0000 0.0000 -1.4637 18.6790 -87.5582 -18.3900 -19.9377 85.2879 -176.6201 52.8957 -28.3335 -0.0040 -0.4100 1.1266 -13.1157 1.9024 72.9417 -4.1789 -6.8650 11.8174 3.0883 -2.2709 -6.8608 -14.9377 5.7895 3.3948 5.9392 6.4976 31.7505 4.9375 1.5560 8.7413 0.0000 -0.0000 0.0000 -14.6008 -39.5578 -28.8750 150.7852 -40.2108 -109.1009 -0.0000 -0.0000 5.0978 73.0911 -28.4757 -57.4789 -7.1250 0.0000 -0.0000 23.2674 -28.0885 -33.2723 0.0000 -0.0000 0.0000 29.8639 68.9553 -18.4897 -151.4912 39.5805 -109.5537 0.0000 -0.0000 -1.4718 -90.6448 43.5584 -90.9356 7.1250 -0.0000 -0.0000 -153.1423 59.0777 -170.3273
0.00 0.00 0.00 -6.3221 -4.3759 -269.7520 0.0000 0.0000 0.0000 -20.2259 -5.8781 -83.6691 18.3276 19.9328 85.1051 4.9408 -4.3134 -41.3655 4.7642 13.1132 39.7936 0.0000 0.0000 0.0000 -1.0248 17.9919 -86.8775 -19.1666 -19.9833 87.5626 -172.0517 69.3350 -36.1626 -0.0023 -0.3129 0.8596 -12.7663 1.6988 74.4371 -4.1062 -7.0191 11.6931 3.0268 -2.3076 -6.9240 -14.5980 5.8730 3.6869 5.3573 6.6564 31.3016 4.6533 1.6424 8.5567 -0.0000 0.0000 0.0000 -14.1384 -39.5318 -29.3425 150.6779 -40.3052 -109.0316 -0.0000 -0.0000 4.6815 72.9124 -28.2007 -56.9558 -7.1250 0.0000 -0.0000 23.2572 -27.5788 -33.1927 -0.0000 0.0000 0.0000 29.6107 69.2338 -18.4320 -151.2014 39.8412 -109.3685 0.0000 -0.0000 -1.3407 -90.0742 43.5630 -90.1077 7.1250 -0.0000 -0.0000 -152.6832 59.6111 -169.7927
0.00 0.00 0.00 -5.6269 -4.2847 -272.3420 0.0000 0.0000 0.0000 -19.8893 -5.6145 -82.8023 19.3174 19.9888 88.0038 9.2268 3.9676 -59.3228 4.5766 12.8905 38.9601 0.0000 0.0000 0.0000 -0.5332 17.3481 -86.2769 -19.7056 -19.9979 89.1391 163.5623 83.9500 -85.4266 -0.0030 -0.3528 0.9694 -12.3767 1.4254 76.2008 -4.0539 -7.2676 11.3206 2.9591 -2.3538 -7.2451 -14.3685 6.1050 4.1231 4.8565 6.9530 30.7438 4.4100 1.7860 8.2891 -0.0000 -0.0000 0.0000 -13.8691 -39.1424 -29.4643 150.6280 -40.3490 -108.9993 -0.0000 -0.0000 4.0907 72.8013 -27.9293 -56.5416 -7.1250 0.0000 -0.0000 23.2856 -27.1474 -33.1824 -0.0000 -0.0000 0.0000 30.5366 69.6980 -17.0295 -150.9410 40.0731 -109.2013 0.0000 -0.0000 -1.0645 -89.8723 -43.3996 89.8142 7.1250 -0.0000 -0.0000 -152.2858 59.7942 -169.5071
0.00 0.00 0.00 -4.9246 -4.4983 -274.7550 0.0000 0.0000 0.0000 -19.9051 -5.5428 -82.1660 19.7991 19.9990 89.4125 15.0860 12.6608 -77.7569 4.0834 12.2705 36.6958 0.0000 0.0000 0.0000 -0.5763 16.6080 -86.0154 -19.7561 -19.9986 89.2870 107.2677 74.1166 -179.4675 -0.0012 -0.2276 0.6253 -12.1369 1.0142 77.8071 -4.1714 -7.7314 10.9676 2.8443 -2.4613 -7.5413 -14.3987 6.3672 3.9131 4.8747 7.2987 30.5945 4.4280 1.9401 8.2329 -0.0000 -0.0000 0.0000 -13.5326 -38.6918 -29.5083 150.6418 -40.3369 -109.0082 -0.0000 -0.0000 3.5198 72.3217 -27.4802 -55.3667 -7.1250 0.0000 -0.0000 23.1525 -26.0834 -32.8243 -0.0000 -0.0000 0.0000 30.9944 69.7893 -16.7077 -151.0135 40.0087 -109.2479 0.0000 -0.0000 -1.5225 -90.0180 43.4276 -90.0262 7.1250 -0.0000 -0.0000 -152.4474 59.6586 -169.6645
0.00 0.00 0.00 -4.2099 -4.6087 -277.1050 0.0000 0.0000 0.0000 -20.0509 -5.3123 -81.3834 19.6560 19.9972 88.9943 23.1133 22.0392 -96.7911 3.8383 11.9420 35.5271 0.0000 0.0000 0.0000 -0.5065 15.7926 -85.7166 -19.2501 -19.9865 87.8069 123.3335 57.1420 167.7736 -0.0049 0.4542 -1.2480 -11.8038 0.8024 79.2637 -4.0471 -7.8758 10.6370 2.8533 -2.4839 -7.7986 -14.3464 6.3244 3.6051 5.1838 7.2408 30.9812 4.5517 1.9233 8.4085 -0.0000 0.0000 0.0000 -13.5098 -38.7423 -29.3394 150.7329 -40.2569 -109.0671 -0.0000 -0.0000 3.0732 71.6294 -26.7316 -53.5624 -7.1250 0.0000 -0.0000 22.9934 -24.4144 -32.3180 -0.0000 0.0000 0.0000 30.0791 69.8108 -17.5498 -150.6151 40.3603 -108.9909 0.0000 -0.0000 -1.6557 -89.6858 -43.5984 89.5443 7.1250 -0.0000 -0.0000 -152.4109 59.9749 -169.4387
0.00 0.00 0.00 -3.5662 -4.3348 -279.4250 0.0000 0.0000 0.0000 -19.5998 -5.2072 -80.8574 18.9698 19.9745 86.9866 32.6685 26.8480 -117.4468 3.9755 12.1277 36.1852 0.0000 0.0000 0.0000 -0.0361 15.0687 -85.2957 -18.3591 -19.9353 85.1974 133.6246 39.6625 163.2144 -0.0396 1.2842 -3.5313 -11.2082 0.2144 80.5969 -4.1384 -8.1976 10.3656 2.6039 -2.5565 -8.0617 -14.4822 6.3523 3.0316 5.6849 7.2832 31.7750 4.8042 1.9206 8.7507 0.0000 0.0000 0.0000 -13.2348 -38.3210 -29.4131 150.8384 -40.1639 -109.1352 -0.0000 -0.0000 2.4401 71.1032 -25.8895 -51.9042 -7.1250 0.0000 -0.0000 22.9583 -22.7941 -31.9874 0.0000 0.0000 0.0000 29.6726 69.6649 -18.2071 -150.4684 40.4885 -108.8958 0.0000 -0.0000 -2.0803 -89.1939 -43.7503 88.8343 7.1250 -0.0000 -0.0000 -152.2184 60.4349 -169.0503
0.00 0.00 0.00 -3.0414 -3.9543 -281.5210 0.0000 0.0000 0.0000 -18.9296 -5.1684 -80.7193 17.8821 19.8921 83.7971 39.4848 27.7837 -138.6921 4.2774 12.5207 37.5998 0.0000 0.0000 0.0000 0.3771 14.4855 -85.0964 -17.2541 -19.8183 81.9481 138.4571 22.9173 162.1657 -0.0005 0.1397 -0.3838 -10.6907 -0.1417 81.7178 -4.0257 -8.2969 10.0104 2.5446 -2.5713 -8.3997 -14.4216 6.3466 3.2709 5.7442 7.2268 31.6657 4.7989 1.9145 8.6729 0.0000 0.0000 0.0000 -13.1707 -37.9365 -29.2594 150.8238 -40.1767 -109.1258 -0.0000 -0.0000 1.6813 70.8141 -25.2829 -50.8293 -7.1250 0.0000 -0.0000 22.9818 -21.7091 -31.8239 0.0000 0.0000 0.0000 29.5467 69.8021 -18.0622 -150.1621 40.7541 -108.6963 0.0000 -0.0000 -2.0522 -88.8293 -43.8134 88.3092 7.1250 -0.0000 -0.0000 -152.0044 60.7729 -168.7310
0.00 0.00 0.00 -2.5836 -3.6479 -283.4740 0.0000 0.0000 0.0000 -18.4023 -5.0573 -80.7188 16.7373 19.7428 80.4212 41.8995 25.4033 -159.6835 4.3861 12.6572 38.0984 0.0000 0.0000 0.0000 0.7307 13.9128 -85.0649 -16.2884 -19.6665 79.0899 140.7297 5.9650 160.6125 -0.0026 -0.3316 0.9111 -10.2599 -0.3707 82.5762 -3.8938 -8.2824 9.8023 2.5022 -2.5629 -8.5739 -13.9712 6.2887 3.2623 5.3665 7.2223 31.5641 4.5912 1.9388 8.6754 -0.0000 -0.0000 0.0000 -12.8931 -37.7321 -29.2041 150.6375 -40.3407 -109.0054 -0.0000 -0.0000 1.1404 70.3916 -24.8617 -49.7238 -7.1250 0.0000 -0.0000 22.8690 -20.6955 -31.4481 -0.0000 -0.0000 0.0000 28.5470 69.8137 -18.9491 -149.8691 41.0054 -108.5046 0.0000 -0.0000 -2.2371 -88.3121 -43.5937 87.5530 7.1250 -0.0000 -0.0000 -151.2313 61.2471 -168.0633
